<?xml version="1.0" encoding="utf-8"?>
<!-- Generator: Adobe Illustrator 24.1.1, SVG Export Plug-In . SVG Version: 6.00 Build 0)  -->
<svg version="1.1" id="Слой_1" xmlns="http://www.w3.org/2000/svg" xmlns:xlink="http://www.w3.org/1999/xlink" x="0px" y="0px"
	 viewBox="0 0 28.9 28.9" style="enable-background:new 0 0 28.9 28.9;" xml:space="preserve">
<style type="text/css">
	.st0{fill:#020203;}
	.st1{fill:none;stroke:#000000;stroke-miterlimit:10;}
</style>
<g>
	<g>
		<g>
			<g>
				<path class="st0" d="M23.3,9.1c-0.4-0.4-0.9-0.7-1.4-0.7H19v0c0-0.5-0.2-0.9-0.5-1.2c-0.3-0.3-0.7-0.5-1.1-0.5h-5.1
					c-0.4,0-0.8,0.2-1.1,0.5c-0.3,0.3-0.5,0.7-0.5,1.2v0H7.9c-0.6,0-1.1,0.2-1.4,0.7c-0.4,0.4-0.6,1-0.6,1.6V20
					c0,0.6,0.2,1.2,0.6,1.6c0.4,0.4,0.9,0.7,1.4,0.7h13.9c0.6,0,1.1-0.2,1.4-0.7c0.4-0.4,0.6-1,0.6-1.6v-9.3
					C23.9,10,23.6,9.5,23.3,9.1z M23,20L23,20c0,0.3-0.1,0.6-0.3,0.9c-0.2,0.2-0.5,0.4-0.8,0.4H7.9c-0.3,0-0.6-0.1-0.8-0.4
					c-0.2-0.2-0.3-0.5-0.3-0.9v-9.3c0-0.3,0.1-0.6,0.3-0.9c0.2-0.2,0.5-0.4,0.8-0.4h3.3c0.3,0,0.5-0.2,0.5-0.5V8.4
					c0-0.2,0.1-0.4,0.2-0.5s0.3-0.2,0.5-0.2h5.1c0.2,0,0.4,0.1,0.5,0.2s0.2,0.3,0.2,0.5v0.5c0,0.3,0.2,0.5,0.5,0.5h3.3
					c0.3,0,0.6,0.1,0.8,0.4c0.2,0.2,0.3,0.5,0.3,0.9V20z"/>
				<path class="st0" d="M14.9,10.7c-1.2,0-2.2,0.5-3,1.3c-0.8,0.8-1.2,2-1.2,3.3s0.5,2.4,1.2,3.3c0.8,0.8,1.8,1.3,3,1.3
					s2.2-0.5,3-1.3c0.8-0.8,1.2-2,1.2-3.3s-0.5-2.4-1.2-3.3C17.1,11.2,16,10.7,14.9,10.7z M17.2,17.9c-0.6,0.6-1.4,1-2.3,1
					c-0.9,0-1.7-0.4-2.3-1c-0.6-0.7-1-1.6-1-2.5s0.4-1.9,1-2.5c0.6-0.7,1.4-1,2.3-1c0.9,0,1.7,0.4,2.3,1c0.6,0.7,1,1.6,1,2.5
					C18.2,16.3,17.8,17.2,17.2,17.9z"/>
				<ellipse class="st0" cx="21" cy="11.6" rx="0.8" ry="0.9"/>
			</g>
		</g>
	</g>
	<circle class="st1" cx="14.5" cy="14.5" r="14"/>
</g>
</svg>
